<?xml version="1.0" standalone="no"?>
<!DOCTYPE svg PUBLIC "-//W3C//DTD SVG 20010904//EN"
 "http://www.w3.org/TR/2001/REC-SVG-20010904/DTD/svg10.dtd">
<svg version="1.0" xmlns="http://www.w3.org/2000/svg"
 width="660.000000pt" height="654.000000pt" viewBox="0 0 660.000000 654.000000"
 preserveAspectRatio="xMidYMid meet">
<g transform="translate(0.000000,654.000000) scale(0.100000,-0.100000)"
fill="#ffffff" stroke="none">
<path d="M3163 6280 c-77 -18 -87 -44 -93 -235 l-5 -160 -1245 -5 c-685 -3
-1253 -9 -1263 -14 -50 -24 -47 136 -47 -2795 l0 -2731 29 -32 29 -33 2730 -3
2729 -2 34 23 c19 13 39 38 46 57 15 44 18 5371 3 5435 -5 24 -21 51 -40 68
l-30 27 -983 0 c-1043 0 -1064 -1 -1126 -48 -68 -50 -83 -138 -37 -216 32 -55
88 -90 200 -125 l81 -25 733 -6 734 -5 19 -24 c19 -23 19 -74 19 -2361 0
-2255 -1 -2337 -18 -2354 -17 -15 -74 -16 -666 -14 l-646 3 105 58 c254 141
441 332 559 572 95 192 136 367 136 575 0 529 -323 964 -840 1130 l-115 37 80
41 c494 250 740 810 589 1340 -29 102 -105 266 -166 354 -61 91 -206 236 -306
308 -94 68 -259 151 -334 169 -150 36 -280 -90 -247 -238 19 -83 58 -131 156
-187 280 -161 431 -351 479 -601 18 -98 18 -149 -5 -258 -34 -164 -118 -303
-247 -405 -153 -122 -253 -152 -509 -154 l-180 -1 -5 1387 -5 1386 -24 26
c-14 14 -41 30 -60 36 -41 11 -201 12 -248 0z m-458 -842 c-7 -23 -136 -388
-205 -578 -127 -353 -229 -639 -335 -940 -51 -146 -139 -393 -195 -550 -56
-157 -106 -296 -110 -310 -5 -14 -52 -149 -105 -300 -180 -512 -528 -1511
-642 -1845 -36 -104 -70 -196 -75 -202 -6 -7 -25 -13 -44 -13 -70 0 -64 -207
-64 2361 0 1630 3 2325 11 2347 6 19 21 35 37 41 17 6 351 10 880 10 l853 1
-6 -22z m365 -1348 l0 -1039 -37 -6 c-286 -49 -541 -139 -762 -269 -35 -20
-65 -35 -67 -33 -3 2 2 19 10 38 8 19 73 201 146 404 271 762 652 1822 689
1918 6 15 13 27 16 27 3 0 5 -468 5 -1040z m1067 -1474 c51 -14 123 -41 161
-60 453 -228 538 -829 173 -1219 -115 -122 -245 -201 -417 -253 -83 -25 -105
-27 -321 -32 l-233 -4 0 802 0 802 273 -5 c253 -5 278 -7 364 -31z m-1067
-971 l0 -945 -422 -1 c-910 -4 -1102 0 -1115 18 -20 26 -16 45 41 211 187 543
260 733 332 872 182 351 517 621 924 744 131 39 152 44 198 45 l42 1 0 -945z"/>
</g>
</svg>
